<svg width="24" height="25" viewBox="0 0 24 25" fill="none" xmlns="http://www.w3.org/2000/svg">
<path d="M11.4 19.2405L15.75 10.6329H12.75V5.06331L8.25 13.6709H11.4V19.2405ZM12 22.2785C10.6167 22.2785 9.31667 22.0127 8.1 21.481C6.88333 20.9494 5.825 20.2279 4.925 19.3165C4.025 18.4051 3.3125 17.3334 2.7875 16.1013C2.2625 14.8692 2 13.5528 2 12.1519C2 10.7511 2.2625 9.43462 2.7875 8.20255C3.3125 6.97048 4.025 5.89875 4.925 4.98736C5.825 4.07596 6.88333 3.35444 8.1 2.8228C9.31667 2.29115 10.6167 2.02533 12 2.02533C13.3833 2.02533 14.6833 2.29115 15.9 2.8228C17.1167 3.35444 18.175 4.07596 19.075 4.98736C19.975 5.89875 20.6875 6.97048 21.2125 8.20255C21.7375 9.43462 22 10.7511 22 12.1519C22 13.5528 21.7375 14.8692 21.2125 16.1013C20.6875 17.3334 19.975 18.4051 19.075 19.3165C18.175 20.2279 17.1167 20.9494 15.9 21.481C14.6833 22.0127 13.3833 22.2785 12 22.2785ZM12 20.2532C14.2333 20.2532 16.125 19.4684 17.675 17.8988C19.225 16.3291 20 14.4135 20 12.1519C20 9.89031 19.225 7.9747 17.675 6.40508C16.125 4.83546 14.2333 4.05065 12 4.05065C9.76667 4.05065 7.875 4.83546 6.325 6.40508C4.775 7.9747 4 9.89031 4 12.1519C4 14.4135 4.775 16.3291 6.325 17.8988C7.875 19.4684 9.76667 20.2532 12 20.2532Z" fill="black"/>
</svg>
