<svg width="24" height="25" viewBox="0 0 24 25" fill="none" xmlns="http://www.w3.org/2000/svg">
<path d="M6 20.2532C4.9 20.2532 3.95833 19.8566 3.175 19.0633C2.39167 18.2701 2 17.3165 2 16.2026V8.10129C2 6.98737 2.39167 6.03378 3.175 5.24053C3.95833 4.44728 4.9 4.05066 6 4.05066H18C19.1 4.05066 20.0417 4.44728 20.825 5.24053C21.6083 6.03378 22 6.98737 22 8.10129V16.2026C22 17.3165 21.6083 18.2701 20.825 19.0633C20.0417 19.8566 19.1 20.2532 18 20.2532H6ZM6 8.10129H18C18.3667 8.10129 18.7167 8.14349 19.05 8.22787C19.3833 8.31226 19.7 8.44728 20 8.63294V8.10129C20 7.54433 19.8042 7.06754 19.4125 6.67091C19.0208 6.27429 18.55 6.07598 18 6.07598H6C5.45 6.07598 4.97917 6.27429 4.5875 6.67091C4.19583 7.06754 4 7.54433 4 8.10129V8.63294C4.3 8.44728 4.61667 8.31226 4.95 8.22787C5.28333 8.14349 5.63333 8.10129 6 8.10129ZM4.15 11.3924L15.275 14.1266C15.425 14.1604 15.575 14.1604 15.725 14.1266C15.875 14.0929 16.0167 14.0253 16.15 13.9241L19.625 10.9874C19.4417 10.7342 19.2083 10.5275 18.925 10.3671C18.6417 10.2068 18.3333 10.1266 18 10.1266H6C5.56667 10.1266 5.1875 10.2405 4.8625 10.4684C4.5375 10.6962 4.3 11.0042 4.15 11.3924Z" fill="#535353" fill-opacity="0.7"/>
</svg>
